# xmcd
#
# Track frame offsets:
#	187
#	15565
#	29815
#	43997
#	57492
#	67475
#	76840
#	90035
#	105132
#	118920
#	134817
#	149665
#	162190
#	177275
#	194082
#	208242
#	226620
#	242370
#
# Disc length: 3410 seconds
#
# Revision: 1
# Processed by: cddbd v1.5.1PL0 Copyright (c) Steve Scherf et al.
# Submitted via: CDex 1.50Beta5
#
DISCID=060d5012
DTITLE=森山良子 - 森山良子/カレッジ・フォーク・ヒット・コレクション
DYEAR=1985
DGENRE=Folk
TTITLE0=時には母のない子のように
TTITLE1=白いブランコ
TTITLE2=坊や大きくならないで
TTITLE3=花と小父さん
TTITLE4=おはなし
TTITLE5=もしもボクの背中に羽根が生えてたら
TTITLE6=忘れかけた子守唄
TTITLE7=風
TTITLE8=悲しくてやりきれない
TTITLE9=小さな日記
TTITLE10=旅立つ彼
TTITLE11=オーブル街
TTITLE12=ある日突然
TTITLE13=お父帰れや
TTITLE14=遠くに行きたい
TTITLE15=死んだ男の残したものは
TTITLE16=フランシーヌの場合
TTITLE17=マリエ
EXTD=
EXTT0=
EXTT1=
EXTT2=
EXTT3=
EXTT4=
EXTT5=
EXTT6=
EXTT7=
EXTT8=
EXTT9=
EXTT10=
EXTT11=
EXTT12=
EXTT13=
EXTT14=
EXTT15=
EXTT16=
EXTT17=
PLAYORDER=
